<svg width="280" height="62" viewBox="0 0 280 62" fill="none" xmlns="http://www.w3.org/2000/svg">
<path fill-rule="evenodd" clip-rule="evenodd" d="M51.7779 20.8893L30.7489 0L0 30.5454L30.7493 61.3159L47.9798 44.0188L47.8808 43.9799C45.9233 43.7527 43.725 42.7672 41.3806 41.7162C39.4107 40.8331 37.3376 39.9038 35.2176 39.3392C32.8209 38.7943 29.4661 38.7075 26.8685 38.6403C24.9061 38.5895 23.376 38.5499 23.0175 38.3324C35.7531 33.625 40.1691 35.4517 44.5278 37.2546C46.8853 38.2298 49.2261 39.1981 52.8575 39.1217L60.712 31.2364C50.7684 36.489 47.321 35.0002 42.3184 32.8398C38.2624 31.0881 33.1841 28.8949 22.7923 29.4956C33.7739 24.3885 39.2998 26.2568 44.8094 28.1195C49.0816 29.564 53.3441 31.0051 60.1329 29.1881L55.4102 24.4972L55.362 24.4978C49.2806 26.8229 46.3441 25.5153 42.4049 23.7612C38.3978 21.9768 33.353 19.7304 22.9047 20.3759C34.6271 14.9908 40.3954 17.214 45.4512 19.1626C47.5524 19.9724 49.5304 20.7348 51.7616 20.8839L51.7779 20.8893ZM194.95 30.7947V37.7562L194.935 38.5595C194.935 39.1331 195.075 39.5703 195.367 39.8654C195.658 40.1548 196.086 40.3023 196.658 40.3023C197.501 40.3023 198.279 40.1171 198.993 39.7343C199.706 39.3569 200.252 38.8052 200.631 38.0838C201.014 37.3678 201.203 36.5645 201.203 35.6794C201.203 34.6634 200.971 33.7509 200.506 32.9476C200.041 32.1442 199.404 31.5816 198.587 31.2592C197.777 30.9366 196.561 30.7835 194.95 30.7947ZM194.951 29.5437C196.448 29.5437 197.55 29.3738 198.264 29.0353C198.977 28.6908 199.523 28.2101 199.906 27.5929C200.284 26.9753 200.473 26.1829 200.473 25.2214C200.473 24.2654 200.284 23.4782 199.911 22.8606C199.538 22.249 199.004 21.7843 198.307 21.4618C197.61 21.1392 196.491 20.9867 194.951 20.9975V29.5437ZM200.712 29.9807C202.749 30.4558 204.181 31.0405 205.002 31.7235C206.186 32.6961 206.775 33.953 206.775 35.4991C206.775 37.1332 206.126 38.4828 204.829 39.548C203.235 40.8433 200.917 41.488 197.879 41.488H186.969V40.8983C187.963 40.8983 188.633 40.8049 188.99 40.614C189.341 40.4284 189.59 40.1877 189.73 39.8872C189.876 39.5868 189.947 38.8543 189.947 37.6795V23.5928C189.947 22.4182 189.876 21.6808 189.73 21.3747C189.59 21.0686 189.336 20.8281 188.979 20.6477C188.622 20.462 187.952 20.3747 186.969 20.3747V19.779H197.258C199.717 19.779 201.462 20.0032 202.484 20.4456C203.51 20.8884 204.316 21.5493 204.905 22.4293C205.499 23.3088 205.791 24.2485 205.791 25.2375C205.791 26.2868 205.418 27.216 204.667 28.0357C203.921 28.8497 202.602 29.4998 200.712 29.9807ZM200.712 29.9807L200.711 29.9808L200.711 29.9806L200.712 29.9807ZM220.164 34.1222L216.97 26.6475L213.674 34.1222H220.164ZM220.704 35.3081H213.123L212.22 37.4224C211.921 38.1261 211.777 38.707 211.777 39.1657C211.777 39.7776 212.023 40.2211 212.507 40.5101C212.791 40.6799 213.49 40.8107 214.609 40.8981V41.4877H207.47V40.8981C208.237 40.7776 208.872 40.4528 209.367 39.9254C209.861 39.3978 210.472 38.3042 211.204 36.6523L218.883 19.331H219.186L226.924 37.1332C227.66 38.8239 228.27 39.8816 228.746 40.3188C229.108 40.6518 229.616 40.8435 230.27 40.8981V41.4877H219.883V40.8981H220.31C221.142 40.8981 221.733 40.7801 222.066 40.5426C222.3 40.3763 222.417 40.1273 222.417 39.8047C222.417 39.6141 222.379 39.4188 222.32 39.2146C222.292 39.1181 222.142 38.7179 221.845 38.0125L220.704 35.3081ZM239.639 19.7786L249.598 33.2423V23.9095C249.598 22.6091 249.425 21.7293 249.08 21.2705C248.602 20.6525 247.804 20.3524 246.681 20.3743V19.7786H253.348V20.3743C252.494 20.4887 251.925 20.6418 251.631 20.8277C251.336 21.0136 251.107 21.3195 250.945 21.7402C250.782 22.1611 250.701 22.8879 250.701 23.9095V41.9847H250.192L236.544 23.9095V37.7123C236.544 38.9577 236.808 39.7991 237.342 40.2365C237.87 40.6793 238.48 40.8976 239.161 40.8976H239.639V41.4873H232.479V40.8976C233.592 40.8868 234.365 40.6409 234.801 40.1598C235.238 39.6789 235.457 38.8648 235.457 37.7121V22.3901L235.025 21.811C234.598 21.237 234.222 20.86 233.892 20.6744C233.567 20.4941 233.094 20.396 232.479 20.3739V19.7781H239.639V19.7786ZM268.434 28.0903L275.663 37.6466C276.688 38.991 277.568 39.9033 278.303 40.3844C278.841 40.7228 279.405 40.8981 280 40.8981V41.4877H269.298V40.8981C269.975 40.8326 270.41 40.7178 270.607 40.559C270.809 40.4007 270.907 40.2042 270.907 39.9693C270.907 39.5211 270.441 38.6741 269.509 37.4391L264.795 31.1771L264.034 31.8495V37.7725C264.034 38.9037 264.096 39.6087 264.221 39.8872C264.339 40.1663 264.572 40.4009 264.914 40.5976C265.26 40.7999 265.809 40.8983 266.57 40.8983V41.488H256.199V40.8983H256.882C257.477 40.8983 257.958 40.7834 258.321 40.5592C258.585 40.4119 258.786 40.1548 258.926 39.7889C259.04 39.5374 259.091 38.8654 259.091 37.7725V23.4945C259.091 22.3853 259.04 21.6916 258.926 21.4126C258.817 21.134 258.59 20.8936 258.253 20.6862C257.912 20.4785 257.456 20.3747 256.882 20.3747H256.199V19.779H266.43V20.3747C265.737 20.3747 265.204 20.4785 264.841 20.6916C264.578 20.8448 264.371 21.0959 264.221 21.4455C264.096 21.7133 264.034 22.3968 264.034 23.4945V30.2484L271.663 23.7351C272.724 22.8279 273.257 22.1011 273.257 21.5603C273.257 21.1505 273.039 20.834 272.605 20.5987C272.382 20.4785 271.828 20.4074 270.949 20.3747V19.779H278.97V20.3747C278.251 20.4295 277.692 20.5606 277.283 20.779C276.869 20.9977 275.927 21.7406 274.452 22.9975L268.434 28.0903ZM89.7918 19.9341V19.9345H71.5857V25.6088H72.1521C72.3816 24.0634 72.9281 22.8719 73.7951 22.0386C74.4127 21.4373 75.4076 21.142 76.77 21.142H78.2397V37.2996C78.2397 38.3541 78.1836 39.0028 78.0716 39.2455C77.9234 39.5987 77.7192 39.8462 77.459 39.9888C77.1016 40.2049 76.6273 40.3158 76.0404 40.3158H75.3668V40.8852H85.9803V40.3158H85.307C84.7303 40.3158 84.2762 40.2157 83.9392 40.0101C83.6079 39.8094 83.3834 39.5774 83.2656 39.3083C83.1535 39.0396 83.0974 38.3698 83.0974 37.2994V21.1418H84.6077C85.5517 21.1418 86.2153 21.2314 86.5929 21.4215C87.2717 21.7591 87.8071 22.2122 88.1948 22.7872C88.5827 23.3563 88.9349 24.2952 89.256 25.6084H89.7918V19.9345H89.792L89.7918 19.9341ZM91.6187 19.9341H91.6193V20.5087C92.4762 20.498 93.0634 20.5777 93.3797 20.7568C93.7014 20.9308 93.9255 21.1628 94.053 21.458C94.1861 21.7529 94.2472 22.5024 94.2472 23.7043V33.961C94.2472 35.7065 94.5174 37.0882 95.0535 38.1217C95.5943 39.1502 96.5176 39.9938 97.8192 40.6528C98.7784 41.1379 100.136 41.3806 101.886 41.3806C103.988 41.3806 105.652 40.9218 106.866 40.0045C108.081 39.0866 108.846 38.0845 109.162 36.9935C109.473 35.9018 109.631 34.1244 109.631 31.6618V23.7045C109.631 22.8504 109.698 22.2599 109.826 21.9278C109.994 21.4528 110.269 21.0997 110.647 20.8623C111.024 20.6251 111.499 20.5089 112.065 20.5089H112.484V19.9341H105.472V20.5089C106.294 20.5089 106.927 20.6251 107.376 20.8623C107.662 21.0152 107.902 21.2949 108.09 21.6956C108.279 22.0962 108.376 22.766 108.376 23.7045V32.2474C108.376 34.4726 108.182 36.0337 107.799 36.9299C107.417 37.8265 106.84 38.5275 106.065 39.0394C105.294 39.551 104.36 39.8041 103.263 39.8041C102.304 39.8041 101.513 39.6037 100.885 39.203C100.258 38.7972 99.8088 38.2963 99.5332 37.6895C99.2575 37.0779 99.1201 35.8384 99.1201 33.9614V23.7047C99.1201 22.5129 99.1865 21.7643 99.3089 21.4636C99.4308 21.1684 99.6405 20.931 99.9363 20.7624C100.232 20.5932 100.773 20.5089 101.559 20.5089H102.079V19.9341H91.6193V19.9339L91.6187 19.9341ZM121.143 31.3349V37.2098C121.143 38.3436 121.209 39.0555 121.342 39.3452C121.48 39.6406 121.714 39.8782 122.051 40.052C122.393 40.2262 123.026 40.3158 123.955 40.3158V40.8852H113.576V40.3158C114.515 40.3158 115.148 40.2262 115.484 40.0417C115.816 39.8621 116.05 39.6301 116.188 39.3403C116.321 39.0503 116.387 38.3436 116.387 37.2098V23.6149C116.387 22.4811 116.321 21.7692 116.188 21.4741C116.05 21.1787 115.816 20.9465 115.474 20.7727C115.137 20.5932 114.504 20.5089 113.576 20.5089V19.9341H122.996C125.45 19.9341 127.241 20.1137 128.379 20.4617C129.512 20.8097 130.44 21.4582 131.16 22.4021C131.874 23.341 132.237 24.4484 132.237 25.7143C132.237 27.259 131.696 28.5354 130.619 29.5476C129.93 30.1858 128.971 30.6657 127.736 30.9819L132.609 38.0748C133.247 38.9921 133.701 39.5618 133.966 39.7886C134.38 40.11 134.849 40.2838 135.39 40.3158V40.8852H129.006L122.475 31.3349H121.143H121.143ZM121.143 21.0627V30.2385H121.995C123.378 30.2385 124.414 30.1119 125.103 29.8481C125.791 29.5844 126.333 29.1098 126.726 28.4242C127.118 27.7387 127.317 26.8474 127.317 25.7454C127.317 24.1474 126.955 22.9716 126.231 22.2068C125.511 21.4421 124.348 21.0627 122.74 21.0627H121.143H121.143ZM146.942 19.6439C150.172 19.5176 152.795 20.493 154.816 22.5604C156.831 24.6329 157.841 27.222 157.841 30.3332C157.841 32.9909 157.091 35.3267 155.586 37.3468C153.591 40.0256 150.774 41.3647 147.136 41.3647C143.493 41.3647 140.671 40.0887 138.676 37.5314C137.104 35.5117 136.313 33.1176 136.313 30.3489C136.313 27.2375 137.339 24.6432 139.385 22.5707C141.437 20.4933 143.952 19.5178 146.942 19.6439ZM147.126 20.6303C145.268 20.6303 143.86 21.6111 142.89 23.5674C142.105 25.1708 141.712 27.4801 141.712 30.4857C141.712 34.0613 142.319 36.7033 143.533 38.4119C144.38 39.6092 145.569 40.2047 147.095 40.2047C148.12 40.2047 148.978 39.9463 149.667 39.4348C150.539 38.7758 151.223 37.721 151.713 36.2708C152.203 34.826 152.448 32.9384 152.448 30.6129C152.448 27.839 152.198 25.7665 151.698 24.3955C151.197 23.019 150.565 22.0489 149.789 21.4795C149.019 20.9149 148.131 20.6305 147.126 20.6305V20.6303ZM166.557 19.9339L176.558 32.9275V23.9204C176.558 22.6655 176.385 21.8165 176.038 21.3736C175.558 20.7777 174.757 20.4877 173.629 20.5087V19.9339H180.324V20.5087C179.467 20.6196 178.895 20.7676 178.599 20.9463C178.303 21.1255 178.073 21.4212 177.91 21.8272C177.747 22.2332 177.665 22.9346 177.665 23.9204V41.3645H177.155L163.449 23.9204V37.2407C163.449 38.443 163.715 39.2553 164.25 39.6773C164.781 40.1046 165.393 40.3156 166.077 40.3156H166.557V40.885H159.367V40.3156C160.485 40.3048 161.26 40.0675 161.699 39.6035C162.138 39.1395 162.357 38.3535 162.357 37.2409V22.4549L161.924 21.8958C161.495 21.3422 161.117 20.9785 160.786 20.7991C160.459 20.6254 159.985 20.5304 159.367 20.5091V19.9343H166.557V19.9339Z" fill="#007bff"/>
</svg>
