<svg width="387" height="363" viewBox="0 0 387 363" fill="none" xmlns="http://www.w3.org/2000/svg">
<path opacity="0.5" fill-rule="evenodd" clip-rule="evenodd" d="M193.501 74.318C193.583 74.2665 193.666 74.237 193.75 74.2342C193.96 74.3318 196.46 83.5937 197.1 85.0986C199.994 91.8927 203.581 97.0728 208.705 102.236C213.143 106.708 214.033 104.78 211.043 110.023C207.499 116.238 204.445 122.789 201.632 129.37C200.187 132.748 198.731 136.074 197.373 139.493C196.528 141.62 194.39 148.371 193.501 149.902C192.612 148.371 190.474 141.62 189.629 139.493C188.272 136.074 186.815 132.748 185.37 129.37C182.558 122.789 179.504 116.237 175.96 110.023C172.97 104.78 173.859 106.709 178.297 102.236C183.422 97.0728 187.009 91.8934 189.902 85.0986C190.543 83.5944 193.042 74.3318 193.253 74.2342C193.336 74.237 193.42 74.2665 193.502 74.318H193.501ZM193.501 183.011L193.509 182.991L193.549 183.028C193.612 183.044 195.442 190.045 195.692 190.777C196.519 193.195 197.449 195.718 198.453 198.065C199.402 200.282 200.448 202.695 201.529 204.84C202.453 206.675 204.972 209.551 203.751 211.455C198.299 219.96 195.15 232.635 195.133 242.681C194.478 242.677 193.942 242.669 193.501 242.643C193.059 242.67 192.522 242.677 191.868 242.681C191.85 232.635 188.702 219.96 183.251 211.455C182.029 209.551 184.548 206.675 185.472 204.84C186.553 202.695 187.599 200.282 188.549 198.065C189.552 195.718 190.482 193.195 191.31 190.777C191.56 190.045 193.389 183.044 193.452 183.028L193.493 182.991L193.501 183.011H193.501ZM193.501 251.184L195.783 251.195C196.214 252.521 196.958 259.136 197.43 261.296C198.674 266.977 200.933 273.234 203.558 278.424C204.54 280.366 207.329 284.223 207.872 285.727C206.137 284.969 198.587 297.765 197.14 301.177C196.507 302.672 195.25 307.318 194.937 307.843L193.501 307.84L192.064 307.843C191.751 307.318 190.495 302.672 189.861 301.177C188.414 297.765 180.864 284.968 179.129 285.727C179.673 284.224 182.462 280.366 183.444 278.424C186.068 273.234 188.327 266.977 189.57 261.296C190.043 259.136 190.788 252.52 191.219 251.195L193.501 251.184ZM193.501 318.901H195.133C196.256 323.449 196.812 325.897 199.053 330.156C200.803 333.481 204.351 336.885 205.482 339.039C203.581 340.194 198.534 340.861 193.501 340.912C188.467 340.861 183.42 340.194 181.519 339.039C182.651 336.885 186.199 333.481 187.949 330.156C190.189 325.897 190.745 323.449 191.868 318.901H193.501ZM193.501 363C193.897 362.946 195.177 359.769 195.555 359.212C196.314 358.093 197.22 357.075 198.237 356.189C200.241 354.444 202.819 352.93 205.187 351.739C207.78 350.433 210.457 349.446 213.087 348.272C217.823 346.155 216.766 347.313 221.195 348.916C240.857 356.034 278.942 353.739 287.409 331.113C292.526 317.434 285.945 306.009 271.564 304.486C273.228 308.13 279.024 310.671 274.938 317.561C272.53 321.62 267.763 323.767 263.508 325.198C258.941 326.734 253.25 326.526 250.553 331.299C247.327 337.005 251.978 341.587 253.142 345.953C248.421 345.863 231.937 344.089 228.684 342.042C230.237 340.106 234.994 338.352 239.851 330.389C242.447 326.133 245.326 317.72 245.303 312.779C252.906 312.779 264.106 312.815 266.887 303.724C269.66 294.662 261.597 280.574 260.961 280.507C260.241 282.778 263.2 287.002 258.064 291.081C254.69 293.76 250.183 294.035 246.089 294.016C235.419 293.966 231.918 292.448 222.766 287.702L245.858 267.2C248.109 268.337 248.915 273.143 258.245 273.099C261.499 273.083 269.616 270.801 271.869 268.487L268.41 256.878L297.407 258.399L297.433 257.886C294.272 269.788 291.483 289.913 292.184 302.074C292.909 314.657 301.937 329.845 316.627 326.386C323.756 324.707 327.143 318.629 325.756 311.487C324.353 304.263 315.195 301.103 310.517 305.035C307.825 307.299 305.246 320.832 300.696 304.359C299.502 300.04 297.955 286.696 303.07 284.646C306.06 286.74 307.559 290.974 313.07 290.632C316.311 290.431 321.488 286.545 322.218 283.556C321.292 282.022 318.016 281.108 316.075 276.422C313.888 271.142 313.409 264.536 313.976 258.759C314.248 255.985 313.66 255.244 316.363 254.45C318.574 253.801 325.884 250.535 325.869 254.712C325.857 258.345 322.418 261.228 324.941 265.514C326.657 268.428 330.415 269.805 333.539 270.476C338.268 271.491 345.613 271.008 349.315 274.723C351.45 276.866 350.429 278.109 350.934 279.736C354.006 280.635 358.403 275.827 359.706 273.24C361.533 269.614 362.332 264.203 361.068 260.306C359.737 256.204 356.047 256.234 355.228 250.565C354.585 246.127 356.438 242.323 358.808 238.768C370.94 220.574 377.626 202.3 378.589 180.505C378.796 175.831 382.608 176.593 385.111 171.477C388.612 164.324 387.078 153.177 381.902 147.105C378.957 143.651 376.272 142.647 372.14 141.342C369.111 140.385 367.06 135.614 365.088 132.848C360.751 126.762 355.838 121.339 350.737 115.911C356.498 116.444 360.578 117.606 363.058 110.751C364.988 105.417 362.274 101.122 358.329 97.796C350.914 91.5417 339.044 90.8776 341.919 76.814C335.475 76.8291 329.873 79.3264 327.091 85.3726C324.679 90.6145 325.19 100.001 327.416 105.249L303.507 103.077C303.871 97.7899 305.397 91.9731 308.172 87.4393C312.812 79.8621 319.063 80.8162 320.388 79.4789C320.765 78.7206 310.636 67.7979 299.979 72.0748C294.944 74.0955 294.739 78.0468 291.227 73.9499C288.711 71.0137 286.927 67.8288 285.697 64.1522C282.86 55.6623 282.706 47.3289 291.326 42.6228C302.193 36.6899 312.887 46.3275 310.1 49.3489C309.31 49.8709 301.339 47.7864 301.322 56.8684C301.312 62.4805 303.565 64.8562 308.976 65.7944C318.702 67.4799 321.31 52.6732 317.017 45.232C312.575 37.5292 302.322 34.5058 294.077 36.1123C284.752 37.929 280.522 44.1977 277.051 52.3291C271.986 49.8428 266.902 47.2671 261.364 50.9383C256.208 54.3566 255.101 59.6555 255.101 65.5589C269.203 60.6926 277.859 63.9407 285.426 76.8662C291.683 87.5533 293.69 103.921 290.2 115.733C286.88 126.971 277.754 133.987 269.814 141.794C265.687 145.852 261.42 150.402 261.38 156.586C261.329 164.624 265.146 169.125 273.327 166.067C270.965 170.865 266.699 174.254 262.299 177.072C260.043 178.517 249.517 184.06 247.407 184.202C244.593 184.392 243.918 168.459 244.013 166.177C244.971 143.05 255.423 120.192 278.295 112.23C280.816 111.352 284.451 110.3 287.075 110.019C292.952 109.389 290.947 108.906 291.356 103.274C285.465 104.304 279.732 104.741 273.637 105.956C268.041 107.071 262.546 108.625 256.925 109.654C245.917 111.669 233.297 109.542 223.353 104.261C223.596 103.228 234.474 88.1405 239.758 93.0631C242.146 95.2884 241.017 98.6278 241.22 101.265C247.169 103.44 252.884 97.9712 255.619 93.1331C257.195 90.3446 257.55 88.2058 259.942 85.8383C263.582 82.2331 266.622 84.852 268.921 84.6137C269.248 80.6554 264.415 74.7713 260.856 72.989C253.637 69.3728 250.093 72.4457 243.929 72.6669C243.945 62.9091 240.294 54.4809 233.691 47.4388C227.281 40.6028 218.109 37.5285 213.161 32.3848C216.784 29.9679 218.842 28.2192 223.126 26.4307C228.423 24.2198 231.189 24.5137 236.091 23.3022C235.297 27.2837 233.526 31.7468 237.921 34.6871C241.717 37.2263 246.638 36.2551 250.747 35.1074C259.249 32.7338 268.817 30.5881 277.441 34.3595C271.209 11.6727 234.554 11.1988 214.811 22.989C207.865 27.1374 208.92 29.3436 206.368 26.1793C203.758 22.9423 201.791 19.9127 201.794 15.6C203.874 15.1371 210.134 18.5857 213.089 12.7607C215.274 8.45354 213.715 3.51109 209.51 1.30979C208.224 0.636007 206.983 0.210858 205.8 0H202.345C196.133 1.17517 192.451 8.72346 194.059 15.8912C194.969 19.9442 197.349 23.4471 199.778 26.715C204.373 32.8938 205.136 30.1423 201.236 36.1652C196.415 43.6104 193.71 52.9211 193.564 61.806C193.541 61.7689 193.52 61.7236 193.499 61.6741C193.479 61.7236 193.457 61.7689 193.435 61.806C193.289 52.9211 190.583 43.6104 185.762 36.1652C181.862 30.1423 182.625 32.8938 187.22 26.715C189.649 23.4471 192.029 19.9436 192.939 15.8912C194.548 8.72346 190.865 1.17517 184.653 0H181.199C180.016 0.210858 178.775 0.636007 177.488 1.30979C173.284 3.51109 171.725 8.45354 173.91 12.7607C176.865 18.5857 183.124 15.1371 185.204 15.6C185.208 19.9127 183.241 22.9423 180.631 26.1793C178.078 29.3436 179.133 27.1374 172.188 22.989C152.445 11.1988 115.789 11.6727 109.558 34.3595C118.182 30.5874 127.75 32.7338 136.252 35.1074C140.361 36.2545 145.282 37.2263 149.078 34.6871C153.474 31.7468 151.702 27.2837 150.909 23.3022C155.81 24.5144 158.577 24.2205 163.873 26.4307C168.157 28.2192 170.216 29.9679 173.839 32.3848C168.891 37.5285 159.717 40.6028 153.308 47.4388C146.706 54.4809 143.054 62.9091 143.071 72.6669C136.906 72.4457 133.363 69.3722 126.144 72.989C122.584 74.772 117.751 80.6561 118.079 84.6137C120.378 84.852 123.417 82.2331 127.058 85.8383C129.45 88.2058 129.805 90.3446 131.381 93.1331C134.116 97.9712 139.83 103.44 145.78 101.265C145.983 98.6278 144.854 95.2884 147.242 93.0631C152.525 88.1405 163.404 103.228 163.647 104.261C153.702 109.541 141.082 111.669 130.074 109.654C124.453 108.625 118.959 107.071 113.363 105.956C107.267 104.741 101.534 104.303 95.6437 103.274C96.0528 108.906 94.048 109.389 99.924 110.019C102.548 110.299 106.182 111.352 108.705 112.23C131.576 120.192 142.028 143.05 142.987 166.177C143.081 168.459 142.407 184.392 139.592 184.202C137.481 184.061 126.957 178.517 124.7 177.072C120.3 174.254 116.035 170.865 113.673 166.067C121.854 169.125 125.671 164.624 125.62 156.586C125.579 150.402 121.311 145.851 117.185 141.794C109.245 133.987 100.12 126.971 96.7998 115.733C93.3104 103.921 95.3171 87.5533 101.574 76.8662C109.14 63.94 117.797 60.6926 131.899 65.5589C131.899 59.6555 130.791 54.3566 125.636 50.9383C120.099 47.2671 115.014 49.8428 109.949 52.3291C106.478 44.1984 102.247 37.929 92.9232 36.1123C84.678 34.5065 74.4253 37.5292 69.9827 45.232C65.6898 52.6732 68.2979 67.4799 78.0238 65.7944C83.4341 64.8562 85.687 62.4805 85.6777 56.8684C85.6611 47.7864 77.6905 49.8716 76.8997 49.3489C74.1133 46.3275 84.807 36.6899 95.6743 42.6228C104.295 47.3283 104.14 55.6623 101.303 64.1522C100.073 67.8295 98.2897 71.0137 95.7728 73.9499C92.2614 78.0468 92.0552 74.0955 87.0207 72.0748C76.3642 67.7972 66.2352 78.7199 66.611 79.4789C67.936 80.8162 74.1885 79.8621 78.8279 87.4393C81.603 91.9731 83.1288 97.7899 83.4933 103.077L59.5837 105.249C61.81 100.001 62.3215 90.6145 59.9089 85.3726C57.1273 79.3264 51.526 76.8298 45.0813 76.814C47.9568 90.8776 36.0864 91.5417 28.6706 97.796C24.7262 101.122 22.0117 105.417 23.942 110.751C26.4217 117.606 30.5018 116.444 36.2627 115.911C31.1616 121.339 26.2488 126.762 21.912 132.848C19.9404 135.614 17.8884 140.384 14.86 141.342C10.7281 142.648 8.04216 143.651 5.09818 147.105C-0.0780549 153.177 -1.6119 164.324 1.88881 171.477C4.39179 176.593 8.20512 175.83 8.41065 180.505C9.37313 202.301 16.0599 220.574 28.1917 238.768C30.5623 242.323 32.4148 246.126 31.7722 250.565C30.9528 256.233 27.2631 256.204 25.9322 260.306C24.6684 264.204 25.4672 269.615 27.2937 273.24C28.5968 275.827 32.9941 280.635 36.0665 279.736C36.5713 278.109 35.5503 276.866 37.6855 274.723C41.387 271.008 48.7317 271.492 53.4609 270.476C56.5845 269.805 60.3426 268.428 62.0587 265.514C64.5823 261.227 61.1435 258.345 61.1308 254.712C61.1162 250.535 68.4262 253.801 70.6366 254.45C73.3404 255.244 72.7524 255.985 73.0245 258.759C73.5905 264.536 73.1109 271.142 70.9246 276.422C68.9837 281.108 65.7084 282.022 64.7819 283.556C65.5122 286.545 70.6898 290.431 73.9297 290.632C79.4419 290.974 80.9405 286.74 83.9297 284.646C89.0454 286.697 87.4982 300.04 86.3043 304.359C81.754 320.833 79.1752 307.299 76.4826 305.035C71.8052 301.103 62.6474 304.263 61.2439 311.487C59.8571 318.629 63.244 324.707 70.3732 326.386C85.0638 329.846 94.0919 314.657 94.8169 302.074C95.5173 289.913 92.7284 269.788 89.5675 257.886L89.5941 258.399L118.591 256.878L115.131 268.487C117.384 270.801 125.502 273.083 128.756 273.099C138.085 273.143 138.891 268.337 141.143 267.2L164.235 287.702C155.083 292.448 151.581 293.966 140.912 294.016C136.818 294.035 132.31 293.759 128.937 291.081C123.8 287.002 126.76 282.778 126.039 280.507C125.403 280.575 117.34 294.663 120.113 303.724C122.895 312.815 134.094 312.779 141.698 312.779C141.675 317.721 144.553 326.133 147.149 330.389C152.007 338.352 156.764 340.106 158.317 342.042C155.063 344.089 138.579 345.863 133.859 345.953C135.022 341.586 139.673 337.005 136.448 331.299C133.751 326.526 128.06 326.734 123.493 325.198C119.237 323.767 114.47 321.62 112.063 317.561C107.976 310.671 113.772 308.13 115.437 304.486C101.055 306.01 94.4744 317.434 99.5921 331.113C108.059 353.739 146.144 356.034 165.806 348.916C170.235 347.313 169.178 346.155 173.913 348.272C176.543 349.446 179.22 350.434 181.814 351.739C184.182 352.93 186.759 354.444 188.764 356.189C189.782 357.074 190.688 358.093 191.446 359.212C191.824 359.769 193.104 362.946 193.5 363H193.501ZM169.527 100.705C176.583 98.2844 186.604 81.7461 186.577 74.2452C181.688 74.2452 174.393 74.8043 174.292 68.5013C174.193 62.2751 182.534 63.1879 187.165 63.1879C187.165 57.9611 186.212 53.3463 184.595 48.4004C183.848 46.116 180.138 38.2332 178.426 37.203C172.775 41.324 159.824 57.867 158.538 64.9496C157.468 70.8489 159.839 79.3752 162.111 84.8767C163.003 87.0327 169.967 99.7741 169.528 100.705H169.527ZM169.527 100.705L169.33 100.903L169.527 100.705ZM169.33 100.903L168.939 101.1L169.33 100.903ZM168.939 101.1L168.35 101.495L168.939 101.1ZM168.35 101.495L167.762 101.89L168.35 101.495ZM167.762 101.89L167.371 102.087L167.762 101.89ZM167.371 102.087L167.175 102.284L167.371 102.087ZM167.175 102.284L166.782 102.482L167.175 102.284ZM165.77 103.304L165.639 103.041L165.77 103.304ZM13.5297 146.515C8.08539 146.993 3.99469 157.682 6.91605 161.472C9.30196 161.761 9.79817 156.05 10.4161 154.239C11.1065 152.219 13.1259 148.186 13.5297 146.514V146.515ZM191.279 182.651C191.486 182.859 192.34 182.333 191.513 182.577C191.49 182.584 191.003 182.373 191.279 182.651ZM190.495 182.848C190.701 183.055 191.556 182.53 190.728 182.774C190.706 182.781 190.219 182.57 190.495 182.848ZM59.3875 184.23C60.4417 188.537 63.2234 193.983 65.6566 197.659C66.9463 199.607 73.1595 207.636 75.1989 207.715C76.9436 205.952 79.3694 197.806 88.7288 189.901C95.0245 184.584 103 180.916 111.321 180.873C93.4294 160.111 87.4963 136.807 84.08 110.182C71.1082 112.524 61.8771 113.038 49.8013 119.874C41.1403 124.778 31.8228 132.083 26.6598 140.788C32.2764 140.747 40.8582 144.714 45.8669 148.092C47.7539 149.365 49.2884 151.244 50.7637 152.241C53.0924 145.968 59.5877 140.356 66.3071 139.663C70.4803 139.232 74.5118 139.948 78.4328 141.347C82.346 142.742 77.8389 142.61 74.7978 148.417C67.1518 163.022 83.2519 192.334 59.3868 184.229L59.3875 184.23ZM147.773 186.796C153.465 189.249 157.836 190.771 163.293 194.065C166.684 196.113 175.094 203.249 176.885 203.898L183.555 185.203L183.048 185.02C174.866 184.22 170.685 174.77 172.015 167.387C172.707 163.554 174.681 160.797 177.313 158.113C181.042 154.309 184.365 154.552 186.755 152.849C186.173 146.709 172.732 114.352 168.275 110.325C168.231 110.333 161.962 113.644 161.037 114.068C145.856 121.043 133.729 117.9 132.128 118.344C132.673 119.227 135.697 122.215 136.71 123.498C138.21 125.396 139.587 127.331 140.854 129.395C141.749 130.855 147.944 142.148 148.072 142.255C150.637 142.763 153.126 140.733 157.487 142.847C160.113 144.121 161.617 146.69 162 149.555C162.963 156.759 158.657 161.418 151.496 161.323C151.496 167.497 150.049 181.709 147.773 186.796L147.773 186.796ZM86.3994 213.685L86.2684 213.422L86.3994 213.685ZM87.183 213.882L87.0526 213.619L87.183 213.882ZM87.6073 214.047C88.0643 214.507 87.3672 213.806 87.6073 214.047V214.047ZM88.3909 214.244C88.5971 214.451 89.4518 213.926 88.6237 214.17C88.6017 214.176 88.1148 213.966 88.3909 214.244ZM89.1751 214.441C89.2875 214.554 90.2852 214.83 89.793 214.334C89.7465 214.287 90.089 214.273 89.6035 214.356C89.5649 214.363 88.8532 214.116 89.1758 214.441H89.1751ZM90.3504 214.638C90.4635 214.751 91.4599 215.027 90.9684 214.531C90.9218 214.485 91.2644 214.471 90.7781 214.553C90.7402 214.56 90.0285 214.313 90.3504 214.638ZM137.776 193.509C126.51 193.457 111.385 199.038 102.764 206.61C101.635 207.6 94.6593 214.176 95.508 215.023C96.4107 215.925 107.938 214.393 109.863 213.96C113.951 213.04 117.951 211.654 121.636 209.63C127.523 206.398 134.853 199.666 137.776 193.509ZM91.5178 214.704L92.6904 214.777L91.5178 214.704ZM92.892 214.891L94.4538 214.983L92.892 214.891ZM143.427 237.707C151.769 234.614 168.921 217.575 173.052 209.504C169.291 204.049 152.62 193.574 146.008 193.706C145.012 200.653 142.651 207.623 141.716 215.052C141.098 219.955 140.926 233.849 143.427 237.707ZM23.9141 145.329L19.095 156.224C22.4394 157.676 23.5862 157.192 25.8823 160.13C30.6288 166.204 28.5954 177.471 16.8601 178.304L16.4171 178.37L19.7728 201.146L20.271 201.072C20.7792 200.925 25.0974 192.307 33.042 191.055C36.3206 190.538 39.651 190.996 42.7619 192.292C43.9898 192.803 49.456 195.696 49.7474 196.657C48.4796 199.203 41.4522 200.059 41.5633 209.891C41.6212 214.988 44.2253 222.164 46.7329 226.598C52.4426 236.698 60.6074 241.848 71.1454 245.837C70.0645 239.488 70.3 225.731 71.5698 219.047C72.4637 214.341 72.6693 216.144 69.0176 213.617C60.5455 207.755 56.4136 202.204 51.8067 193.051C43.91 177.359 43.439 150.804 23.9154 145.329H23.9141ZM117.591 222.734L91.5131 222.394L91.5258 221.944C89.0101 225.566 86.015 246.354 88.4095 249.57C91.3688 250.493 100.817 250.164 104.463 250.184C106.941 250.197 109.744 249.931 112.193 249.679L117.795 248.975C119.715 248.896 117.627 249.563 118.772 249.396C118.749 241.943 113.395 231.115 117.591 222.733V222.734ZM118.783 253.324L118.959 250.001L118.783 253.324ZM185.398 242.678C185.398 236.737 185.567 234.014 183.711 228.187C183.171 226.494 179.729 217.545 178.477 217.014C178.356 217.071 172.738 224.506 171.986 225.412C167.538 230.777 161.694 235.807 156.08 239.794C154.296 241.061 147.216 244.817 146.492 245.534C147.276 250.524 168.974 276.943 173.28 278.831C176.346 277.884 181.972 262.625 182.815 259.228C185.649 247.814 184.668 251.719 181.249 249.822C177.393 247.684 178.946 242.752 185.4 242.677L185.398 242.678ZM179.127 285.724L178.931 285.922L179.127 285.724ZM178.539 286.514L178.343 286.711L178.539 286.514ZM172.268 294.609C167.784 298.086 161.595 308.849 161.483 314.744C161.321 323.341 165.494 329.999 172.362 334.797C176.843 332.574 180.695 323.571 180.695 318.502C177.631 318.5 174.806 317.615 174.377 314.188C173.708 308.83 176.448 309.712 179.041 308.324C181.002 307.275 173.555 296.57 172.268 294.609ZM217.472 100.702C210.416 98.2809 200.395 81.7427 200.422 74.2418C205.311 74.2418 212.606 74.8009 212.707 68.4978C212.807 62.2717 204.465 63.1845 199.835 63.1845C199.835 57.9577 200.788 53.3429 202.405 48.397C203.153 46.1126 206.862 38.2298 208.574 37.1995C214.226 41.3205 227.177 57.8636 228.463 64.9462C229.533 70.8454 227.163 79.3717 224.889 84.8733C223.997 87.0293 217.034 99.7707 217.473 100.702H217.472ZM217.472 100.702L217.669 100.899L217.472 100.702ZM217.669 100.899L218.06 101.097L217.669 100.899ZM218.06 101.097L218.649 101.491L218.06 101.097ZM218.649 101.491L219.237 101.886L218.649 101.491ZM219.237 101.886L219.629 102.083L219.237 101.886ZM219.629 102.083L219.825 102.28L219.629 102.083ZM219.825 102.28L220.217 102.478L219.825 102.28ZM221.23 103.3L221.361 103.037L221.23 103.3ZM373.47 146.512C378.915 146.99 383.005 157.678 380.084 161.468C377.698 161.757 377.202 156.046 376.584 154.236C375.893 152.216 373.874 148.182 373.47 146.511V146.512ZM195.721 182.647C195.514 182.855 194.66 182.329 195.487 182.574C195.51 182.581 195.997 182.369 195.721 182.647ZM196.505 182.844C196.298 183.052 195.444 182.526 196.271 182.771C196.294 182.777 196.781 182.566 196.505 182.844ZM327.613 184.226C326.558 188.533 323.776 193.979 321.343 197.655C320.054 199.604 313.841 207.633 311.801 207.711C310.056 205.948 307.631 197.803 298.271 189.898C291.976 184.58 284 180.912 275.679 180.87C293.571 160.108 299.504 136.804 302.92 110.178C315.892 112.521 325.122 113.034 337.199 119.871C345.86 124.774 355.177 132.079 360.34 140.784C354.724 140.744 346.142 144.71 341.133 148.089C339.246 149.361 337.712 151.241 336.236 152.237C333.908 145.964 327.412 140.353 320.693 139.66C316.52 139.229 312.488 139.945 308.567 141.343C304.654 142.739 309.161 142.606 312.202 148.414C319.848 163.018 303.748 192.331 327.613 184.226L327.613 184.226ZM239.227 186.793C233.535 189.246 229.164 190.767 223.707 194.061C220.316 196.109 211.906 203.245 210.115 203.895L203.445 185.2L203.952 185.016C212.134 184.216 216.315 174.767 214.985 167.383C214.293 163.551 212.319 160.794 209.687 158.11C205.958 154.305 202.635 154.548 200.245 152.846C200.827 146.705 214.268 114.349 218.725 110.322C218.769 110.329 225.038 113.641 225.963 114.065C241.144 121.039 253.271 117.897 254.872 118.341C254.327 119.224 251.303 122.212 250.29 123.495C248.79 125.393 247.413 127.327 246.146 129.392C245.251 130.851 239.056 142.145 238.928 142.252C236.363 142.76 233.874 140.729 229.513 142.844C226.887 144.117 225.383 146.687 225 149.552C224.037 156.756 228.343 161.415 235.504 161.32C235.504 167.493 236.951 181.706 239.227 186.792L239.227 186.793ZM300.601 213.681L300.732 213.418L300.601 213.681ZM299.817 213.878L299.947 213.615L299.817 213.878ZM299.393 214.043C298.936 214.504 299.632 213.802 299.393 214.043V214.043ZM298.609 214.24C298.403 214.448 297.548 213.922 298.376 214.167C298.398 214.173 298.885 213.962 298.609 214.24ZM297.825 214.437C297.712 214.551 296.715 214.826 297.207 214.33C297.254 214.284 296.911 214.27 297.397 214.353C297.436 214.36 298.147 214.113 297.825 214.437ZM296.65 214.635C296.536 214.748 295.54 215.023 296.032 214.528C296.078 214.481 295.736 214.468 296.222 214.55C296.26 214.557 296.971 214.31 296.65 214.635ZM249.223 193.505C260.489 193.454 275.614 199.035 284.236 206.606C285.365 207.597 292.341 214.172 291.492 215.02C290.589 215.922 279.062 214.39 277.137 213.957C273.049 213.036 269.049 211.65 265.364 209.627C259.477 206.395 252.147 199.662 249.223 193.505ZM295.482 214.7L294.309 214.774L295.482 214.7ZM294.107 214.888L292.546 214.979L294.107 214.888ZM243.572 237.704C235.23 234.61 218.079 217.571 213.947 209.5C217.708 204.046 234.379 193.571 240.991 193.703C241.988 200.649 244.348 207.619 245.284 215.049C245.902 219.951 246.073 233.845 243.572 237.704ZM363.085 145.326L367.904 156.221C364.56 157.673 363.413 157.189 361.117 160.127C356.371 166.2 358.403 177.467 370.139 178.301L370.582 178.367L367.227 201.143L366.728 201.069C366.22 200.922 361.902 192.304 353.957 191.051C350.679 190.534 347.348 190.993 344.237 192.288C343.01 192.799 337.543 195.693 337.252 196.654C338.52 199.2 345.547 200.055 345.436 209.888C345.378 214.984 342.774 222.16 340.266 226.595C334.557 236.694 326.392 241.844 315.854 245.833C316.935 239.484 316.699 225.728 315.43 219.044C314.536 214.338 314.33 216.141 317.982 213.614C326.454 207.751 330.586 202.2 335.193 193.047C343.089 177.356 343.561 150.801 363.085 145.326H363.085ZM269.409 222.73L295.486 222.391L295.473 221.941C297.989 225.563 300.984 246.351 298.589 249.566C295.631 250.489 286.181 250.161 282.536 250.18C280.058 250.194 277.254 249.927 274.805 249.676L269.203 248.972C267.284 248.892 269.372 249.559 268.227 249.393C268.249 241.94 273.603 231.112 269.408 222.73L269.409 222.73ZM268.216 253.32L268.041 249.997L268.216 253.32ZM201.601 242.674C201.601 236.734 201.432 234.011 203.288 228.184C203.828 226.491 207.271 217.542 208.523 217.01C208.643 217.068 214.261 224.503 215.013 225.408C219.462 230.774 225.305 235.804 230.92 239.79C232.703 241.058 239.783 244.813 240.507 245.531C239.723 250.52 218.025 276.94 213.719 278.827C210.654 277.881 205.027 262.621 204.184 259.224C201.351 247.811 202.332 251.715 205.751 249.819C209.607 247.68 208.054 242.749 201.6 242.674L201.601 242.674ZM207.872 285.721L208.068 285.919L207.872 285.721ZM208.46 286.511L208.656 286.708L208.46 286.511ZM214.731 294.606C219.216 298.083 225.405 308.846 225.517 314.74C225.679 323.337 221.506 329.996 214.638 334.794C210.157 332.571 206.305 323.568 206.305 318.499C209.369 318.497 212.194 317.611 212.623 314.184C213.292 308.827 210.552 309.709 207.958 308.321C205.997 307.271 213.444 296.566 214.731 294.606Z" fill="#00AEED"/>
</svg>
