<svg width="1600" height="780" viewBox="0 0 1600 780" fill="none" xmlns="http://www.w3.org/2000/svg">
<path opacity="0.66" fill-rule="evenodd" clip-rule="evenodd" d="M1600 0H0V780H1600V0ZM508.548 358.255L366.998 217.641L366.988 217.662L160 423.268L366.988 630.391L482.969 513.956L482.302 513.693C469.12 512.166 454.32 505.53 438.538 498.454C425.281 492.51 411.33 486.256 397.061 482.456C380.919 478.785 358.323 478.201 340.834 477.749C327.633 477.408 317.341 477.142 314.931 475.681C401.507 443.676 430.184 455.508 459.786 467.722C475.351 474.145 491.171 480.673 515.799 480.99L568.674 427.909C497.083 464.156 474.436 453.832 441.844 438.975C415.649 427.035 383.03 412.165 313.416 416.189C387.344 381.808 424.542 394.384 461.631 406.923C490.389 416.645 519.08 426.345 564.776 414.116L532.987 382.535L532.663 382.545C489.197 399.226 469.449 390.092 443.068 377.891C416.751 365.719 383.833 350.494 314.183 354.797C393.504 318.363 433.111 333.67 467.168 346.832C481.074 352.207 494.055 357.224 508.437 358.215L508.548 358.255ZM1439 396.278H617.571V406.137H1439V396.278ZM682.838 596.696V536.922C696.804 536.821 707.346 538.135 714.375 540.906C721.444 543.677 726.978 548.51 731.007 555.407C735.026 562.304 737.046 570.141 737.046 578.868C737.046 586.463 735.4 593.359 732.078 599.508C728.796 605.696 724.07 610.439 717.879 613.675C711.699 616.962 704.953 618.559 697.642 618.559C692.673 618.559 688.977 617.295 686.443 614.808C683.918 612.27 682.696 608.518 682.696 603.593L682.838 596.696ZM711.558 521.804C705.377 524.716 695.814 526.172 682.838 526.172L682.827 526.152V452.776C696.178 452.675 705.872 453.99 711.921 456.76C717.97 459.531 722.605 463.515 725.837 468.774C729.078 474.083 730.714 480.838 730.714 489.049C730.714 497.311 729.078 504.117 725.796 509.416C722.474 514.725 717.738 518.851 711.558 521.804ZM769.987 544.89C762.868 539.025 750.447 534.009 732.784 529.924L732.795 529.914C749.184 525.778 760.626 520.196 767.089 513.208C773.602 506.18 776.834 498.201 776.834 489.191C776.834 480.696 774.299 472.627 769.149 465.073C764.039 457.519 757.051 451.846 748.154 448.043C739.298 444.241 724.16 442.32 702.843 442.32H613.633V447.437C622.166 447.437 627.973 448.185 631.063 449.783C634.153 451.33 636.354 453.393 637.576 456.022C638.849 458.651 639.455 464.982 639.455 475.074V596.029C639.455 606.121 638.839 612.411 637.576 614.99C636.354 617.568 634.203 619.631 631.154 621.229C628.063 622.867 622.257 623.666 613.633 623.666V628.733H708.235C734.572 628.733 754.668 623.201 768.493 612.077C779.732 602.926 785.357 591.337 785.357 577.311C785.357 564.033 780.247 553.243 769.987 544.89ZM873.759 501.306L901.449 565.489H845.18L873.759 501.306ZM840.394 575.673H906.125L916.011 598.901C918.586 604.958 919.889 608.396 920.131 609.226C920.646 610.975 920.979 612.654 920.979 614.292C920.979 617.053 919.959 619.186 917.93 620.622C915.042 622.665 909.922 623.676 902.701 623.676H898.995V628.743H989.053V623.676C983.378 623.201 978.975 621.563 975.834 618.701C971.704 614.949 966.412 605.858 960.04 591.347L892.946 438.477H890.32L823.741 587.211C817.399 601.399 812.108 610.783 807.816 615.313C803.534 619.844 798.031 622.635 791.376 623.666V628.733H853.269V623.666C843.575 622.918 837.506 621.795 835.042 620.339C830.851 617.862 828.72 614.059 828.72 608.801C828.72 604.857 829.962 599.872 832.567 593.834L840.394 575.673ZM1156.65 557.935L1070.3 442.33L1070.32 442.32H1008.24V447.437C1013.57 447.619 1017.67 448.468 1020.49 450.015C1023.36 451.613 1026.62 454.849 1030.32 459.774L1034.06 464.749V596.312C1034.06 606.212 1032.16 613.21 1028.38 617.336C1024.59 621.462 1017.88 623.575 1008.24 623.666V628.733H1070.32V623.666H1066.18C1060.27 623.666 1054.99 621.795 1050.4 617.993C1045.78 614.241 1043.48 607.011 1043.48 596.312V477.794L1161.82 633H1166.22V477.794C1166.22 469.017 1166.93 462.777 1168.33 459.167C1169.73 455.547 1171.72 452.928 1174.28 451.33C1176.83 449.732 1181.76 448.428 1189.16 447.437V442.32H1131.36V447.437C1141.1 447.255 1148.01 449.833 1152.15 455.132C1155.15 459.076 1156.65 466.63 1156.65 477.794V557.935ZM1382.65 595.756L1319.96 513.693L1319.94 513.683L1372.13 469.957C1384.92 459.167 1393.08 452.786 1396.68 450.905C1400.22 449.034 1405.07 447.902 1411.31 447.437V442.32H1341.76V447.437C1349.39 447.72 1354.19 448.327 1356.12 449.358C1359.89 451.38 1361.78 454.101 1361.78 457.62C1361.78 462.272 1357.16 468.511 1347.96 476.298L1281.82 532.229V474.235C1281.82 464.8 1282.35 458.935 1283.43 456.639C1284.74 453.636 1286.53 451.482 1288.82 450.167C1291.96 448.337 1296.58 447.447 1302.59 447.447V442.33H1213.88V447.447H1219.79C1224.77 447.447 1228.72 448.337 1231.68 450.116C1234.6 451.896 1236.58 453.969 1237.52 456.356C1238.51 458.752 1238.95 464.709 1238.95 474.235V596.838C1238.95 606.222 1238.51 611.996 1237.52 614.15C1236.3 617.295 1234.56 619.5 1232.26 620.764C1229.12 622.695 1224.95 623.676 1219.79 623.676H1213.88V628.743H1303.8V623.676C1297.21 623.676 1292.45 622.837 1289.44 621.098C1286.48 619.409 1284.46 617.396 1283.43 615C1282.35 612.603 1281.82 606.546 1281.82 596.838V545.972L1288.41 540.198L1329.29 593.966C1337.37 604.564 1341.41 611.845 1341.41 615.688C1341.41 617.7 1340.55 619.389 1338.8 620.754C1337.1 622.119 1333.33 623.1 1327.45 623.666V628.733H1420.25V623.666C1415.1 623.666 1410.2 622.17 1405.53 619.257C1399.16 615.131 1391.54 607.294 1382.65 595.756ZM736.339 260.225V217.277H736.329H598.677V260.225H602.959C604.696 248.535 608.826 239.505 615.38 233.204C620.045 228.654 627.569 226.419 637.869 226.419H648.977V348.699C648.977 356.677 648.553 361.582 647.705 363.422C646.594 366.102 645.049 367.983 643.08 369.055C640.384 370.693 636.789 371.533 632.355 371.533H627.266V375.841H707.508V371.533H702.418C698.056 371.533 694.622 370.774 692.078 369.217C689.573 367.7 687.877 365.94 686.988 363.908C686.14 361.865 685.716 356.799 685.716 348.699V226.419H697.137C704.277 226.419 709.285 227.097 712.143 228.533C717.283 231.091 721.333 234.519 724.261 238.867C727.2 243.185 729.856 250.284 732.29 260.225H736.339ZM829.245 217.277H750.154H750.144V221.626C756.627 221.545 761.06 222.141 763.454 223.497C765.877 224.811 767.574 226.571 768.543 228.806C769.543 231.04 770.007 236.703 770.007 245.805V323.428C770.007 336.645 772.047 347.091 776.097 354.918C780.187 362.694 787.175 369.085 797.011 374.071C804.261 377.742 814.531 379.582 827.76 379.582C843.655 379.582 856.238 376.114 865.418 369.166C874.597 362.219 880.384 354.635 882.777 346.373C885.13 338.111 886.321 324.661 886.321 306.024V245.794C886.321 239.333 886.816 234.863 887.786 232.345C889.058 228.755 891.138 226.085 893.996 224.285C896.854 222.495 900.439 221.616 904.721 221.616H907.882V217.267H854.875V221.616C861.085 221.616 865.872 222.485 869.265 224.285C871.426 225.438 873.244 227.552 874.668 230.585C876.092 233.619 876.829 238.696 876.829 245.794V310.453C876.829 327.301 875.365 339.112 872.466 345.898C869.568 352.683 865.216 357.992 859.349 361.865C853.532 365.738 846.463 367.649 838.172 367.649C830.921 367.649 824.943 366.133 820.197 363.099C815.461 360.025 812.057 356.232 809.977 351.641C807.897 347.02 806.857 337.636 806.857 323.428V245.805C806.857 236.784 807.362 231.121 808.291 228.846C809.22 226.611 810.795 224.811 813.037 223.537C815.279 222.263 819.369 221.626 825.307 221.626H829.245V217.277ZM973.37 303.577V303.567L973.36 303.577H973.37ZM973.37 348.031V303.577H983.428L1032.81 375.861H1081.07V371.553C1076.98 371.31 1073.44 369.996 1070.31 367.558C1068.31 365.839 1064.87 361.531 1060.05 354.584L1023.21 300.907C1032.55 298.521 1039.8 294.89 1045.01 290.057C1053.15 282.402 1057.24 272.734 1057.24 261.044C1057.24 251.468 1054.5 243.084 1049.1 235.985C1043.67 228.846 1036.64 223.941 1028.07 221.302C1019.47 218.663 1005.94 217.308 987.377 217.308H916.162V221.656C923.181 221.656 927.967 222.293 930.512 223.648C933.097 224.963 934.875 226.722 935.915 228.957C936.915 231.192 937.42 236.572 937.42 245.157V348.041C937.42 356.617 936.915 361.966 935.915 364.161C934.875 366.355 933.098 368.115 930.593 369.47C928.048 370.865 923.262 371.543 916.162 371.543V375.851H994.627V371.543C987.609 371.543 982.822 370.855 980.237 369.54C977.692 368.226 975.915 366.426 974.875 364.191C973.875 361.997 973.37 356.607 973.37 348.031ZM973.37 295.265V225.822H985.448C997.596 225.822 1006.39 228.694 1011.84 234.479C1017.32 240.263 1020.06 249.162 1020.06 261.256C1020.06 269.599 1018.55 276.344 1015.58 281.532C1012.61 286.72 1008.52 290.32 1003.31 292.312C998.101 294.304 990.265 295.265 979.813 295.265H973.37ZM1227.95 237.158C1212.67 221.504 1192.84 214.122 1168.42 215.083V215.093C1145.81 214.132 1126.8 221.514 1111.28 237.239C1095.81 252.924 1088.06 272.552 1088.06 296.104C1088.06 317.057 1094.04 335.168 1105.92 350.458C1121.01 369.814 1142.34 379.471 1169.89 379.471C1197.39 379.471 1218.68 369.338 1233.77 349.063C1245.15 333.773 1250.83 316.096 1250.83 295.983C1250.83 272.441 1243.19 252.843 1227.95 237.158ZM1137.79 244.773C1145.12 229.969 1155.77 222.546 1169.82 222.546V222.556C1177.41 222.556 1184.12 224.71 1189.95 228.977C1195.82 233.285 1200.61 240.627 1204.38 251.043C1208.17 261.418 1210.06 277.103 1210.06 298.096C1210.06 315.702 1208.21 329.991 1204.5 340.922C1200.8 351.894 1195.63 359.883 1189.03 364.869C1183.82 368.742 1177.34 370.693 1169.58 370.693C1158.04 370.693 1149.05 366.183 1142.65 357.122C1133.47 344.189 1128.88 324.196 1128.88 297.135C1128.88 274.382 1131.86 256.908 1137.79 244.773ZM1392.34 315.621L1316.73 217.277L1316.74 217.298H1262.38V221.646C1267.04 221.808 1270.64 222.526 1273.1 223.84C1275.62 225.195 1278.46 227.956 1281.71 232.143L1284.99 236.37V348.274C1284.99 356.698 1283.33 362.644 1280.01 366.153C1276.69 369.662 1270.83 371.462 1262.38 371.543V375.851H1316.74V371.543H1313.11C1307.94 371.543 1303.31 369.945 1299.3 366.709C1295.25 363.524 1293.24 357.375 1293.24 348.274V247.463L1396.86 379.491H1400.72V247.463C1400.72 240 1401.33 234.691 1402.56 231.617C1403.81 228.543 1405.53 226.308 1407.78 224.953C1410.01 223.588 1414.33 222.475 1420.81 221.636V217.287H1370.2V221.636C1378.72 221.474 1384.78 223.668 1388.41 228.179C1391.03 231.526 1392.34 237.957 1392.34 247.453V315.621Z" fill="black"/>
</svg>